<?xml version="1.0" standalone="no"?><!DOCTYPE svg PUBLIC "-//W3C//DTD SVG 1.1//EN" "http://www.w3.org/Graphics/SVG/1.1/DTD/svg11.dtd"><svg t="1587174427541" class="icon" viewBox="0 0 1024 1024" version="1.1" xmlns="http://www.w3.org/2000/svg" p-id="1226" width="18" height="18" xmlns:xlink="http://www.w3.org/1999/xlink"><defs><style type="text/css"></style></defs><path d="M308.7 739.7c-9.3-7.3-18.7-14-27.3-21.8-4.7-4.2-7.9-0.1-11.9 0.4-9 1.2-18 1.4-27.1 1.8-13.4 0.7-26.9 0.8-40.3 1.9-6.9 0.6-11.2-2.7-14-9.5-5.6-13.9-11.1-27.8-16.3-42-2.3-6.2 2.6-7.8 5.9-9.8 10.8-6.5 21.6-13.1 32.5-19.2 3.6-2 4.1-4.2 2.4-8.1-6.1-13.8-12.5-27.5-18.2-41.5-2.8-6.9-4-14.7-6.6-21.7-0.9-2.5-3.7-5.2-5.9-5.6-16.4-2.8-32.9-5.1-49.4-7.2-5.9-0.8-9.3-3.4-10.2-10.9-1.5-12.8-3.6-25.4-5.2-38.2-1.2-9.6 0.7-12.2 8.9-15 18.3-6.2 36.5-12.6 54.6-19.4 2.1-0.8 4.2-4.1 5-6.8 3.8-13 7.1-26.1 10.6-39.2 1.4-5 2.8-8.9-2.7-12.9-14.2-10.3-27.9-21.6-41.4-33.1-2-1.7-4-7.6-3.1-9.3 7.9-14.6 16.1-28.9 25.1-42.6 2.1-3.2 7.6-5.1 11.2-4.6 18.9 2.5 37.9 5.3 56.6 9.6 9.1 2.1 13.3-4.5 18.9-9.6 8-7.4 15.5-15.6 23.9-22.2 4.5-3.6 4.5-6.7 2.7-11.4-6.3-16-12.6-31.9-18.7-48-1.8-4.6-0.7-8 3.5-10.4 15.5-8.8 30.7-18.4 46.5-26.7 3.3-1.8 9.1-0.6 12.4 1.8 15.6 11.3 30.7 23.6 46.2 35.1 2.2 1.6 5.7 2 8.3 1.3 20.9-5.5 41.8-11.6 62.7-16.9 5.3-1.3 7.8-3.4 8.5-10.2 1.6-13.9 3.8-27.8 6.8-41.3 0.8-3.6 5.1-8.2 8.1-8.6 16.7-2.5 33.6-3.8 50.4-5.6 3.5-0.4 5.7 0.1 7 5 5 17.8 10.5 35.5 16.1 53.1 0.6 2 3.4 3.9 5.4 4.3 21.7 4.2 43.4 8.2 65.1 11.9 2.4 0.4 5.4-0.6 7.5-2.2 13.9-10.3 27.5-21.2 41.6-31.2 3.3-2.4 8.8-3.5 12.3-2.1 16.3 6.6 32.3 14.3 48.4 21.8 5.5 2.6 7.9 5.2 4.6 13.9-4.5 11.7-5.9 25.2-8 38.1-0.4 2.2 1.5 6.1 3.3 7.6 13.9 11.5 27.9 22.8 42.2 33.4 2.6 1.9 7.1 1.2 10.6 0.7 19.3-3.1 38.6-6.4 57.9-9.8 6.3-1.1 10.9 0.3 14.7 7.4 6.8 12.5 14.8 24.1 22 36.3 3.7 6.3 1.5 11.6-3.8 15.3-8.8 6.2-17.1 13.4-25.5 20.4-3 2.4-5.4 6-8.5 7.8-6.3 3.5-4.6 8.1-2.4 13.5 3.2 7.9 6.7 15.8 9.3 24 2.6 8.2 4.1 16.8 6.5 25.1 0.6 2 2.7 4.3 4.3 4.7 16 3.3 32.1 6.3 48.2 9.2 11 2 12.4 4 13.2 16.9 0.7 11.6 2.2 23.2 2.9 34.8 0.5 8.5-2.8 12.2-9.7 14.1-17.5 4.9-35 10.1-52.3 15.8-2.2 0.7-4.4 4.7-5.3 7.7-4.1 13.6-7.7 27.5-11.7 41.1-1.9 6.7-4.3 12.1 3.6 16.7 12.4 7.1 23.9 16.1 35.9 24.1 9.4 6.3 9.4 6.4 4.3 17.2-5.9 12.3-11.3 24.9-17.8 36.7-2.1 3.7-7.3 7.4-10.9 7.2-22.9-1.7-45.7-4.7-68.6-6.6-3.7-0.3-8.2 2-11.3 4.6-10.2 8.5-19.6 18.2-29.9 26.6-4.3 3.5-5.6 5.6-4 12.2 4.5 18.7 7.6 37.9 11.5 56.8 1.1 5.5-0.6 8.9-4.9 10.7-16.8 6.9-33.5 14.1-50.5 20.2-3.3 1.2-8.6-1.1-11.6-3.8-13.1-12.4-25.6-25.8-38.7-38.3-2-1.9-6-1.7-8.9-1.1-17 4-33.8 8.6-50.8 12.5-4.9 1.1-6.8 3.3-7.6 9.2-2 14.6-4.3 29.3-7.7 43.5-0.9 3.5-6.2 7.4-9.8 7.9-18.2 2.4-36.4 4.2-54.7 5.1-3.3 0.2-8.1-3.9-10-7.6-7.9-15.6-14.7-32-22.7-47.6-2-3.8-6.4-7.2-10.2-8.1-17.2-4.1-34.5-7.1-51.7-10.8-4.1-0.9-7-0.8-10.3 3.2-9.5 11.4-19.9 21.8-29.4 33.2-4.2 5-8.5 6.7-13.8 5-17.4-5.7-34.7-11.7-52-17.7-4.2-1.4-6.5-4.5-5.8-10.3 2.4-18.5 4.4-37.1 6.8-55.6 0.2-2 1.3-4 2.2-6.3z m391.2-76.5c4.9-4.2 8.5-6.7 11.6-10 15.7-16.9 29.5-35.5 40.2-57.5 9.4-19.4 15.9-40.1 18.2-61.8 3.4-32.1-1-63-12.8-92.9-11.3-29-28.3-52.4-48.1-72.6-25.5-26.1-55.4-44.1-87.6-56.4-56-21.5-113.1-25.4-170.7-11.8-57.5 13.6-108.9 41.2-148.7 94.7-22.4 30.1-35.7 64.4-39.4 104-1.9 20.9-0.2 41.9 6 61.4 5.6 17.9 13.4 34.9 21.4 51.5 4.5 9.3 11.5 17 17.4 25.4l1.8-0.6c0.2-3.2 0.6-6.5 0.6-9.7 0.1-19.4 0.2-38.8-0.1-58.2-0.1-6.1 1.5-8.5 6.6-9.8 42.5-10.6 84.9-21.6 127.3-32.5 5.8-1.5 11.7-2.9 18.5-4.6v30.7c40.4-10.4 79.9-20.5 120.5-30.9v30.9c39.4-10.1 77.9-20 117.3-30.2v140.9zM440 672.9c0 13.8 0.4 26.8-0.1 39.7-0.3 7.6 1.6 9.9 8.1 9.8 38.6-0.4 77.3-0.2 115.9-0.2 1.6 0 3.3-0.3 4.8-0.5v-48.8H440z m16.3-68h10.8c24.7 0 49.3 0.1 74 0.1 14 0 14 0 12.6-16.6-0.1-0.8-0.5-1.6-0.8-2.6h-96.6v19.1z m-22.5-18.6c-1.5-0.6-2.2-1-2.9-1-30.3 0-60.6 0-90.9-0.1-3.8 0-5.6 1.7-5.7 6.7-0.3 11.8 0.1 12.9 10.3 12.9 27.6 0.2 55.2 0 82.9-0.1 2.1 0 4.2-0.7 6.3-1.1v-17.3z m-0.1 57.1h-98.5c-2.4 18.4-2.4 18.4 11.9 18.4h78.5c2.6 0 5.2-0.3 8.1-0.5v-17.9z m22.6 18.1h97v-18.1h-97v18.1z m120.6-0.2H673v-18.6h-84.4c-14.6 0-14.6 0.1-11.7 18.6z m-240.2-28.1c30.8 0 60.5-0.1 90.3 0.1 5.5 0 7.1-3 6.9-9.1-0.2-5.7-0.3-10.1-6.8-10-29.1 0.2-58.2 0.1-87.2 0.2-0.9 0-1.8 0.5-3.2 0.9v17.9z m336.4-18.3h-96.3v17.7h96.3v-17.7z m-120.3-0.1h-96.2c-0.2 2.2-0.5 3.8-0.5 5.5-0.4 12.9-0.4 13 10.3 13 26.6 0 53.3 0.1 79.9 0 2.1 0 4.2-0.3 6.6-0.5-0.1-6.2-0.1-11.9-0.1-18z m23.7-11.3h96.4v-16.9h-96.4v16.9z m239.1-74.2c9.5-0.1 18.5-6.6 19.7-14.2 1.6-10.1-5.5-18.4-17.3-20.3-10.3-1.7-22.3 6.6-22.9 15.9-0.7 10.2 8.6 18.7 20.5 18.6zM306.1 712.9c4.4-2 9.3-3.3 13.3-6.3 8.3-6.2 8.6-16.3 1.5-23.3-7.9-7.8-22.2-8.7-29.9-0.9-3.9 4-6.5 9.7-4.1 16.6 3 8.4 9.3 12.7 19.2 13.9z m-87.7-182.5c4.5-1.8 9-3 13.1-5.3 5.9-3.5 8.1-12.3 5.1-18.3-6.6-13.1-24-16.3-33.5-6.3-8 8.5-6.7 19.8 3.4 25.4 3.6 2 7.6 2.9 11.9 4.5z m512.2 181.5c2.3-1.1 7.7-2.3 11.3-5.9 7-6.9 9.5-11.3 2.4-21.3-6.9-9.7-24.7-10.6-31.9-1.4-4 5.2-6.4 11.1-2.3 18.3 4.4 7.6 10.6 9.7 20.5 10.3z m-213.2 75.2c1.9-0.3 4.9-0.3 7.7-1.3 11.8-4.1 15.4-16.6 7.7-26-6.8-8.3-24.3-9.8-31-1.5-3.5 4.2-7 9.6-3.5 17.2 4.1 9 10.3 11.4 19.1 11.6z m211.2-438.8c4.6-2.3 9.6-3.8 13.6-6.9 7.8-6 8-14.4 1.4-22.1-7-8.1-23.3-9.3-30.4-1.2-4.1 4.7-7.8 10.5-3.3 18.6 4.6 7.9 10.8 10 18.7 11.6z m-423.3-0.1c5-2.1 9.9-3.2 13.9-6.1 8.3-6 8.8-16.2 1.6-23.5-7.5-7.7-22.3-8-30.1-0.7-5.8 5.4-5.5 19.9 1 24.3 4.1 2.7 8.9 3.9 13.6 6z m211.5-111.8c-3.7 1.2-7.6 1.8-11 3.7-8.6 4.7-11.2 17.3-4.6 24.5 3.5 3.7 8.9 5.7 13.7 6.6 10.2 2.1 21.8-7.1 22.1-16.5 0.2-9.3-9-17.4-20.2-18.3z" fill="#3FA9F5" p-id="1227"></path><path d="M616.9 450.8h43.9c3 23.8 5.9 47.4 8.9 71.8-22 6.3-43.1 12.4-65 18.6 4.1-30.4 8-59.7 12.2-90.4zM402.9 454.4c3.5 24.5 6.9 47.9 10.4 72.2-21.8 6.2-43.2 12.4-66.1 18.9 2.3-16.5 4.4-31.4 6.5-46.3 1.9-13.3 3.6-26.6 5.8-39.9 0.3-1.9 2.9-4.7 4.5-4.8 12.8-0.2 25.5-0.1 38.9-0.1zM484.1 541.5c3.4-22 6.6-41.9 9.5-61.9 1-6.8 1.7-13.7 2.1-20.6 0.4-6.5 3-9 8.5-8.8 9.5 0.4 19.1 0.7 28.6 0.1 6.9-0.5 9 4.1 9.7 10.6 1.2 11.2 1.9 22.4 3.3 33.6 1.2 9.2 3.1 18.3 4.7 27.9-22.3 6.4-43.5 12.5-66.4 19.1z" fill="#3FA9F5" p-id="1228"></path></svg>