<?xml version="1.0" standalone="no"?><!DOCTYPE svg PUBLIC "-//W3C//DTD SVG 1.1//EN" "http://www.w3.org/Graphics/SVG/1.1/DTD/svg11.dtd"><svg t="1587136975408" class="icon" viewBox="0 0 1024 1024" version="1.1" xmlns="http://www.w3.org/2000/svg" p-id="4632" width="32" height="32" xmlns:xlink="http://www.w3.org/1999/xlink"><defs><style type="text/css"></style></defs><path d="M343.463 935.339c-3.993 0-7.987-1.598-11.182-3.994h-0.799C283.557 889.81 256.4 829.903 256.4 766.003c0-120.611 98.247-219.657 218.858-219.657s218.858 98.247 218.858 219.657c0 62.303-26.358 121.41-72.686 162.946-3.195 3.195-8.786 3.993-11.981 3.993-5.592 0-9.585-2.396-11.982-4.792l-0.798-0.799-0.799-0.799c-3.195-3.195-5.591-8.786-4.793-13.579 0-4.792 2.397-9.585 5.592-12.78 38.34-35.145 60.705-83.869 60.705-135.787 0-47.926-18.371-94.253-52.718-128.6-34.346-35.145-79.875-53.516-128.599-53.516-100.643 0-182.914 82.272-182.914 182.914 0 52.718 23.164 102.24 62.303 137.386 7.987 6.39 8.786 17.572 1.597 25.56-2.396 4.792-7.189 7.189-13.579 7.189z m429.729-351.451c-86.265 0-156.555-70.29-156.555-156.556s70.29-156.555 156.555-156.555c85.466 0 155.757 70.29 155.757 156.555-0.8 87.064-70.29 156.556-155.757 156.556z m0-275.57c-65.498 0-119.813 53.517-119.813 119.813s53.516 119.813 119.813 119.813 119.813-53.517 119.813-119.813-54.315-119.813-119.813-119.813z m-259.594-108.63c-47.127 0-84.668-38.34-84.668-84.668s37.541-84.667 84.668-84.667 84.667 38.34 84.667 84.667-37.541 84.668-84.667 84.668z m0-133.392c-26.36 0-47.926 21.567-47.926 47.926s21.567 47.925 47.926 47.925 47.925-21.567 47.925-47.925-21.567-47.926-47.925-47.926z" p-id="4633" fill="#1296db"></path><path d="M476.855 865.847c-55.114 0-99.844-44.73-99.844-99.844s44.73-99.844 99.844-99.844 99.844 44.73 99.844 99.844c-0.799 55.114-45.529 99.844-99.844 99.844z m0-162.945c-34.346 0-63.101 27.956-63.101 63.101s27.956 63.102 63.1 63.102 63.102-27.957 63.102-63.102c-0.798-34.346-29.554-63.101-63.101-63.101z m200.487 81.472c-3.195 0-5.592-0.798-7.19-1.597l-2.395-0.799-0.8-0.799c-3.993-2.396-7.188-7.188-7.188-11.98-0.799-4.793 0.799-9.586 3.195-13.58l147.77-210.071c3.993-4.793 9.584-7.988 15.176-7.988 3.195 0 5.59 0.799 7.188 1.598l2.397 0.798 0.798 0.8c3.994 2.395 7.19 7.188 7.19 11.98 0.798 4.793-0.8 9.585-3.196 13.58l-147.77 210.07c-3.194 5.592-8.785 7.988-15.175 7.988zM398.577 598.265c-4.792 0-10.384-2.396-14.377-6.39l-0.8-0.799c-2.395-3.993-3.993-7.987-3.993-11.98 0-5.592 2.396-10.385 7.189-13.58l235.632-185.31c3.994-2.396 7.987-3.994 11.182-3.994 4.793 0 10.384 2.396 14.378 6.39l0.799 0.799 0.798 0.799c2.397 3.993 3.994 7.987 3.994 11.981 0 5.591-2.396 10.384-7.189 13.579L409.76 594.27c-3.994 3.195-7.988 3.994-11.183 3.994z m374.615-103.838c-36.743 0-67.095-30.352-67.095-67.095s30.352-67.095 67.095-67.095 67.095 30.353 67.095 67.095-30.353 67.095-67.095 67.095z m0-96.649c-16.774 0-29.554 13.58-29.554 29.554s13.579 29.554 29.554 29.554c16.774 0 29.554-13.579 29.554-29.554s-13.58-29.554-29.554-29.554z m75.881-194.096c-49.522 0-89.46-39.938-89.46-89.46 0-48.724 39.938-88.662 89.46-88.662s89.46 39.938 89.46 89.46c0 48.724-39.937 88.662-89.46 88.662z m0-141.38c-28.755 0-52.717 23.963-52.717 52.718s23.962 52.718 52.717 52.718 52.718-23.963 52.718-52.718c0-28.755-23.963-52.717-52.718-52.717z" p-id="4634" fill="#1296db"></path><path d="M898.596 391.388c-10.384 0-18.371-7.987-18.371-19.17l13.578-222.851c0-9.585 7.988-17.573 18.372-17.573 5.591 0 10.384 2.396 13.579 6.39 3.195 3.994 4.792 8.786 3.993 13.579l-13.579 222.053c0.8 10.384-7.188 17.572-17.572 17.572z m-170.933-83.07c-3.994 0-7.987-1.597-8.786-2.396h-1.598c-3.994-2.396-6.39-6.39-7.987-10.384-1.598-4.792-0.799-10.384 1.597-14.377l65.498-115.02c2.396-5.592 9.585-9.586 15.975-9.586 3.994 0 7.987 1.598 8.786 2.397h1.598c3.993 2.396 6.39 6.39 7.987 10.383 1.598 4.793 0.799 10.384-1.597 14.378l-65.498 115.02c-3.994 6.39-9.585 9.585-15.975 9.585zM567.113 88.661c-9.584 0-18.37-7.987-18.37-18.37 0-9.586 7.987-18.372 18.37-18.372h211.67c9.585 0 18.371 7.987 18.371 18.371 0 9.585-7.987 18.371-18.37 18.371h-211.67z" p-id="4635" fill="#1296db"></path><path d="M583.089 164.543c-9.585 0-18.371-7.988-18.371-18.371 0-9.585 7.987-18.372 18.37-18.372h188.506c9.585 0 18.372 7.988 18.372 18.372 0 9.585-7.988 18.37-18.372 18.37H583.09z m-210.87-35.145c-9.586 0-18.372-7.988-18.372-18.371 0-9.586 7.988-18.372 18.371-18.372h67.096c9.585 0 18.37 7.988 18.37 18.372 0 9.585-7.987 18.37-18.37 18.37h-67.096z" p-id="4636" fill="#1296db"></path><path d="M100.643 1022.402c-9.585 0-18.372-7.987-18.372-18.37v-84.669c0-9.585 7.988-18.37 18.372-18.37H857.06c9.585 0 18.371 7.987 18.371 18.37v84.668c0 9.585-7.987 18.371-18.371 18.371H100.643z m737.248-37.54v-48.725H119.014v48.724h718.877zM277.966 226.845c-24.762 0-47.925-7.988-68.693-22.366-4.793-3.195-7.189-7.987-7.189-13.578 0-3.994 0-8.787 4.793-13.58 3.195-3.194 7.189-6.39 14.377-6.39 3.994 0 8.787 1.598 11.183 3.995 14.377 10.383 29.554 15.176 46.327 15.176 42.334 0 75.882-34.346 75.882-75.881 0-42.334-35.145-77.48-76.68-77.48-18.372 0-35.145 5.592-48.724 16.774-3.994 3.994-8.786 3.994-11.183 3.994-5.591 0-11.182-3.195-14.377-7.189-2.397-3.993-3.994-7.987-3.994-11.98 0-5.592 2.396-10.385 7.189-13.58C226.846 7.988 251.607 0 278.764 0c62.303 0 113.423 51.12 113.423 113.423-1.597 62.302-52.717 113.423-114.221 113.423z" p-id="4637" fill="#1296db"></path></svg>