<?xml version="1.0" standalone="no"?><!DOCTYPE svg PUBLIC "-//W3C//DTD SVG 1.1//EN" "http://www.w3.org/Graphics/SVG/1.1/DTD/svg11.dtd"><svg t="1587136093747" class="icon" viewBox="0 0 1024 1024" version="1.1" xmlns="http://www.w3.org/2000/svg" p-id="3324" width="16" height="16" xmlns:xlink="http://www.w3.org/1999/xlink"><defs><style type="text/css"></style></defs><path d="M505.6 467.2c34.133333 0 64-29.866667 64-66.133333s-27.733333-66.133333-64-66.133334-64 29.866667-64 66.133334 27.733333 66.133333 64 66.133333zM505.6 501.333333c-72.533333 0-130.133333 59.733333-130.133333 132.266667v17.066667h260.266666v-17.066667c0-72.533333-59.733333-132.266667-130.133333-132.266667z" p-id="3325" fill="#1296db"></path><path d="M512 93.866667c-234.666667 0-424.533333 189.866667-424.533333 424.533333S277.333333 942.933333 512 942.933333s424.533333-189.866667 424.533333-424.533333c-2.133333-234.666667-192-424.533333-424.533333-424.533333zM290.133333 593.066667V618.666667c0 10.666667-8.533333 17.066667-17.066666 17.066666-10.666667 0-17.066667-8.533333-17.066667-17.066666v-27.733334c0-51.2 27.733333-96 70.4-117.333333-12.8-14.933333-21.333333-34.133333-21.333333-55.466667 0-38.4 25.6-72.533333 61.866666-81.066666 10.666667-2.133333 19.2 4.266667 23.466667 12.8 2.133333 8.533333-4.266667 17.066667-12.8 19.2-21.333333 6.4-36.266667 25.6-36.266667 49.066666 0 19.2 10.666667 36.266667 27.733334 44.8l4.266666 4.266667c0 2.133333 2.133333 2.133333 2.133334 4.266667v17.066666c-2.133333 4.266667-6.4 8.533333-12.8 8.533334-42.666667 10.666667-72.533333 49.066667-72.533334 96z m377.6 74.666666c0 10.666667-8.533333 17.066667-17.066666 17.066667H360.533333c-10.666667 0-17.066667-8.533333-17.066666-17.066667v-34.133333c0-68.266667 42.666667-130.133333 102.4-153.6-21.333333-19.2-36.266667-46.933333-36.266667-78.933333 0-55.466667 42.666667-100.266667 96-100.266667s96 44.8 96 100.266667c0 32-12.8 59.733333-36.266667 78.933333 59.733333 25.6 100.266667 85.333333 102.4 153.6v34.133333z m89.6-53.333333c0 10.666667-8.533333 17.066667-17.066666 17.066667-10.666667 0-17.066667-8.533333-17.066667-17.066667v-25.6c0-44.8-29.866667-85.333333-72.533333-96-6.4 0-10.666667-2.133333-12.8-8.533333v-4.266667-8.533333c0-2.133333 2.133333-2.133333 2.133333-4.266667s2.133333-4.266667 4.266667-4.266667c17.066667-6.4 27.733333-25.6 27.733333-44.8 0-23.466667-14.933333-42.666667-36.266667-46.933333-8.533333-4.266667-12.8-12.8-10.666666-21.333333 2.133333-10.666667 10.666667-14.933333 19.2-12.8 34.133333 10.666667 59.733333 42.666667 59.733333 81.066666 0 21.333333-6.4 40.533333-17.066667 53.333334 42.666667 21.333333 70.4 66.133333 70.4 117.333333v25.6z" p-id="3326" fill="#1296db"></path></svg>